<?xml version="1.0" encoding="utf-8"?><svg xmlns="http://www.w3.org/2000/svg" xmlns:xlink="http://www.w3.org/1999/xlink"><symbol viewBox="0 0 64 64" id="arrow" xmlns="http://www.w3.org/2000/svg"><path class="ast0" d="M15.7 3.6V0c10.9 10.7 21.7 21.4 32.6 32-10.9 10.6-21.8 21.3-32.6 32v-3.6l29-28.4-29-28.4z"/></symbol><symbol viewBox="0 0 64 64" id="fb" xmlns="http://www.w3.org/2000/svg"><path class="bst0" d="M25.3 64c-.2-.3-.2-.5-.2-.8V35.7c0-.8 0-.8-.8-.8H16c-.5 0-.7-.2-.7-.7v-10c0-.5.2-.7.7-.7h8.5c.5 0 .7-.2.7-.8v-8.3c.2-7.3 4-12.8 11.5-14 3-.5 8.8-.3 11.7.2.2 0 .3.2.3.3v9.7c0 .3-.2.3-.5.3-3.2 0-10.8-1.2-11 3.8 0 3-.2 5.8-.2 8.8h10.5c.7 0 .7 0 .7.7-.5 3.3-1 6.7-1.3 10 0 .5-.3.7-.8.7h-9v28.3c0 .3 0 .7-.2.8H25.3z"/></symbol><symbol viewBox="0 0 64 64" id="geo" xmlns="http://www.w3.org/2000/svg"><path class="cst0" d="M32 2.8c12.5 0 22.6 10.1 22.6 22.6C54.6 46.2 32 61.2 32 61.2S9.4 46.2 9.4 25.4C9.4 12.9 19.5 2.8 32 2.8zm0 10.9c6.5 0 11.7 5.2 11.7 11.7S38.5 37.1 32 37.1c-6.5 0-11.7-5.2-11.7-11.7S25.5 13.7 32 13.7zm0-7.1c10.4 0 18.8 8.4 18.8 18.8S42.4 44.2 32 44.2s-18.8-8.4-18.8-18.8S21.6 6.6 32 6.6z"/></symbol><symbol viewBox="0 0 16 16" id="gp" xmlns="http://www.w3.org/2000/svg"><path d="M5.7 7.4v1.5h2.5c-.1.7-.8 1.9-2.5 1.9-1.5 0-2.8-1.3-2.8-2.8s1.2-2.8 2.8-2.8c.9 0 1.4.4 1.8.7l1.2-1.2c-.8-.7-1.8-1.2-3-1.2-2.5 0-4.5 2-4.5 4.5s2 4.5 4.5 4.5c2.6 0 4.3-1.8 4.3-4.4 0-.3 0-.5-.1-.7H5.7zm7.8 0V6.1h-1.3v1.3h-1.3v1.2h1.3v1.3h1.3V8.6h1.3V7.4z"/></symbol><symbol viewBox="0 0 64 64" shape-rendering="geometricPrecision" text-rendering="geometricPrecision" image-rendering="optimizeQuality" fill-rule="evenodd" clip-rule="evenodd" id="icon" xmlns="http://www.w3.org/2000/svg"><path class="efil0" d="M11 21h22c-1 1-2 3-1 5-2 3-2 9 0 12-1 2 0 4 1 5H11V21zm40 7l13 4-13 4v-8zM7 21v22H6c-3 0-6-3-6-7v-8c0-4 3-7 6-7h1z"/></symbol><symbol viewBox="0 0 64 64" id="in" xmlns="http://www.w3.org/2000/svg"><path class="fst0" d="M32 0c-8.7 0-9.8 0-13.2.2-3.4.2-5.7.7-7.8 1.5-2.1.8-3.9 1.9-5.6 3.7C3.6 7.1 2.5 8.9 1.7 11 .9 13 .4 15.4.2 18.8 0 22.2 0 23.3 0 32s0 9.8.2 13.2c.2 3.4.7 5.7 1.5 7.8.8 2.1 1.9 3.9 3.7 5.7 1.8 1.8 3.6 2.9 5.7 3.7 2 .8 4.4 1.3 7.8 1.5 3.3.1 4.4.1 13.1.1s9.8 0 13.2-.2c3.4-.2 5.7-.7 7.8-1.5 2.1-.8 3.9-1.9 5.7-3.7 1.8-1.8 2.9-3.6 3.7-5.7.8-2 1.3-4.4 1.5-7.8.1-3.3.1-4.4.1-13.1s0-9.8-.2-13.2c-.2-3.4-.7-5.7-1.5-7.8-.8-2.1-1.9-3.9-3.7-5.7-1.8-1.8-3.6-2.9-5.7-3.7-2-.8-4.4-1.3-7.8-1.5C41.8 0 40.7 0 32 0zm0 5.8c8.5 0 9.6 0 12.9.2 3.1.1 4.8.7 5.9 1.1 1.5.6 2.6 1.3 3.7 2.4s1.8 2.2 2.4 3.7c.4 1.1 1 2.8 1.1 5.9.2 3.4.2 4.4.2 12.9s0 9.6-.2 12.9c-.2 3.1-.7 4.8-1.1 5.9-.6 1.5-1.3 2.6-2.4 3.7-1.1 1.1-2.2 1.8-3.7 2.4-1.1.4-2.8 1-6 1.1-3.4.2-4.4.2-13 .2s-9.6 0-13-.2c-3.1-.2-4.8-.7-6-1.1-1.5-.6-2.6-1.3-3.7-2.4-1.1-1.1-1.8-2.2-2.4-3.7-.4-1.1-1-2.8-1.1-6 .1-3.3 0-4.3 0-12.8s0-9.6.2-13c.2-3.1.7-4.8 1.1-6 .6-1.5 1.3-2.6 2.4-3.7S11.5 7.5 13 7c1.1-.4 2.8-1 5.9-1.1 3.4-.1 4.4-.2 13-.2l.1.1zm0 9.8c-9.1 0-16.4 7.4-16.4 16.4 0 9.1 7.4 16.4 16.4 16.4 9.1 0 16.4-7.4 16.4-16.4 0-9.1-7.3-16.4-16.4-16.4zm0 27.1c-5.9 0-10.7-4.8-10.7-10.7S26.1 21.3 32 21.3 42.7 26.1 42.7 32 37.9 42.7 32 42.7zm20.9-27.8c0 2.1-1.7 3.8-3.8 3.8s-3.8-1.7-3.8-3.8 1.7-3.8 3.8-3.8 3.8 1.7 3.8 3.8z"/></symbol><symbol viewBox="0 0 64 64" id="mail" xmlns="http://www.w3.org/2000/svg"><path class="gst0" d="M8 16.8h48c.5 0 1 .2 1.4.5L32 36.3l-25.4-19c.4-.3.9-.5 1.4-.5zm50.3 4.5v27.6c0 1.2-1 2.3-2.3 2.3H8c-1.2 0-2.3-1-2.3-2.3V21.3l25.1 18.8c.1.1.2.1.3.2 0 0 .1 0 .1.1.2.1.5.2.7.2h.1c.2 0 .5-.1.7-.2 0 0 .1 0 .1-.1.1 0 .2-.1.3-.2l25.2-18.8z"/></symbol><symbol viewBox="0 0 64 64" id="menu" xmlns="http://www.w3.org/2000/svg"><path class="hst0" d="M64 18.625v-5.347a1.61 1.61 0 0 0-1.606-1.606H1.606A1.611 1.611 0 0 0 0 13.278v5.347a1.61 1.61 0 0 0 1.606 1.606h60.788A1.61 1.61 0 0 0 64 18.625zm-1.606 33.702A1.61 1.61 0 0 0 64 50.721v-5.348c0-.885-.721-1.606-1.606-1.606H1.606A1.613 1.613 0 0 0 0 45.375v5.348a1.61 1.61 0 0 0 1.606 1.606c21.608-.002 36.497-.002 60.788-.002zM64 34.673v-5.348a1.61 1.61 0 0 0-1.606-1.606H1.606A1.613 1.613 0 0 0 0 29.327v5.348c0 .885.722 1.616 1.606 1.616h60.788A1.62 1.62 0 0 0 64 34.673z"/></symbol><symbol viewBox="0 0 64 64" id="mobile" xmlns="http://www.w3.org/2000/svg"><path class="ist0" d="M16.4 0h31.2c1.3 0 2.3 1.1 2.3 2.3v59.3c0 1.3-1.1 2.3-2.3 2.3H16.4c-1.3 0-2.3-1.1-2.3-2.3V2.3c0-1.2 1-2.3 2.3-2.3zm13.2 57.9h4.9c1 0 1.9.9 1.9 1.9 0 1.1-.9 1.9-1.9 1.9h-4.9c-1.1 0-1.9-.9-1.9-1.9-.1-1 .8-1.9 1.9-1.9zM17.8 5h28.5v50.2H17.8V5z"/></symbol><symbol viewBox="0 0 16 16" id="ok" xmlns="http://www.w3.org/2000/svg"><path d="M11.8 8.8c-.3-.5-1-.6-1.4-.3-1.5.9-3.3.9-4.8 0-.5-.3-1.1-.2-1.4.3-.3.5-.2 1.2.3 1.5.6.4 1.3.7 2.1.9l-2 2c-.4.4-.4 1.1 0 1.5.2.2.5.3.7.3.3 0 .5-.1.7-.3l2-2 2 2c.4.4 1.1.4 1.5 0 .4-.4.4-1.1 0-1.5l-2-2c.7-.2 1.4-.5 2.1-.9.4-.3.5-1 .2-1.5zM8 8.2c2 0 3.6-1.6 3.6-3.6S10 1 8 1 4.4 2.7 4.4 4.7C4.4 6.6 6 8.2 8 8.2zm0-5c.8 0 1.5.7 1.5 1.5S8.8 6.2 8 6.2s-1.5-.7-1.5-1.5c0-.9.7-1.5 1.5-1.5z"/></symbol><symbol viewBox="0 0 64 64" id="points" xmlns="http://www.w3.org/2000/svg"><path class="kst0" d="M5.4 26.6c3 0 5.4 2.4 5.4 5.4 0 3-2.4 5.4-5.4 5.4C2.4 37.4 0 35 0 32c0-3 2.4-5.4 5.4-5.4zm26.6 0c3 0 5.4 2.4 5.4 5.4 0 3-2.4 5.4-5.4 5.4-3 0-5.4-2.4-5.4-5.4 0-3 2.4-5.4 5.4-5.4zm26.6 0c3 0 5.4 2.4 5.4 5.4 0 3-2.4 5.4-5.4 5.4-3 0-5.4-2.4-5.4-5.4 0-3 2.4-5.4 5.4-5.4z"/></symbol><symbol viewBox="0 0 64 64" id="rub" xmlns="http://www.w3.org/2000/svg"><path d="M53.205 4.903C49.221 1.634 43.232 0 35.235 0h-18.43v31.3H4.82v8.582h11.986v6.477H4.82v8.582h11.986V64h10.462v-9.059h13.314v-8.582H27.268v-6.304h6.654c1.371 0 2.669-.07 3.934-.173h.454v-.041c5.977-.548 10.759-2.243 14.305-5.127 4.378-3.56 6.566-8.682 6.566-15.365-.001-6.362-1.992-11.178-5.976-14.446zm-8.558 23.551c-2.51 1.868-6.45 2.802-11.819 2.802h-5.56V8.755h7.267c4.757 0 8.259.905 10.506 2.714s3.371 4.553 3.371 8.23c0 3.969-1.255 6.887-3.765 8.755z"/></symbol><symbol viewBox="0 0 64 64" id="search" xmlns="http://www.w3.org/2000/svg"><path class="mst0" d="M22.979.008a22.945 22.945 0 0 1 16.253 6.731 22.918 22.918 0 0 1 6.736 16.253c0 3.667-.862 7.133-2.398 10.211.468.294.918.646 1.321 1.048l16.918 16.914c2.922 2.928 2.922 7.71 0 10.632h-.01c-2.923 2.923-7.701 2.928-10.623 0L34.258 44.884a7.678 7.678 0 0 1-1.04-1.311 22.87 22.87 0 0 1-10.239 2.398A22.887 22.887 0 0 1 6.735 39.24 22.917 22.917 0 0 1 0 22.992 22.925 22.925 0 0 1 6.735 6.739 22.887 22.887 0 0 1 22.979.008zm11.26 11.724a15.854 15.854 0 0 0-11.26-4.661c-4.393 0-8.374 1.78-11.25 4.661a15.86 15.86 0 0 0-4.666 11.26c0 4.393 1.78 8.374 4.666 11.255a15.848 15.848 0 0 0 11.25 4.661c4.403 0 8.384-1.78 11.26-4.661a15.894 15.894 0 0 0 4.666-11.255 15.901 15.901 0 0 0-4.666-11.26z"/></symbol><symbol viewBox="0 0 64 64" id="share" xmlns="http://www.w3.org/2000/svg"><path d="M50.025 39.346c-3.591 0-6.818 1.553-9.073 4.012l-15.229-7.632c.374-1.177.579-2.428.579-3.727 0-1.431-.258-2.799-.708-4.078l14.866-7.835c2.262 2.783 5.708 4.567 9.565 4.567 6.797 0 12.327-5.53 12.327-12.327C62.352 5.53 56.822 0 50.025 0S37.699 5.53 37.699 12.327c0 .919.109 1.812.301 2.674l-15.463 8.15a12.277 12.277 0 0 0-8.561-3.477c-6.797 0-12.327 5.53-12.327 12.327s5.53 12.327 12.327 12.327c3.462 0 6.591-1.44 8.832-3.746l15.376 7.705a12.261 12.261 0 0 0-.484 3.387C37.699 58.47 43.228 64 50.025 64s12.327-5.53 12.327-12.327-5.53-12.327-12.327-12.327z"/></symbol><symbol viewBox="0 0 64 64" id="tel" xmlns="http://www.w3.org/2000/svg"><path class="ost0" d="M8.364 14.108c6.387 16.693 15.183 32.48 27.138 47.083 2.656 3.248 7.455 3.753 10.724 1.13 2.863-2.296 5.733-4.588 8.596-6.884a3.555 3.555 0 0 0 .571-4.948l-6.859-8.774a3.417 3.417 0 0 0-2.382-1.336 3.437 3.437 0 0 0-2.623.753l-5.445 4.36c-5.766-8.121-10.665-16.747-14.794-25.823l6.413-2.499a3.418 3.418 0 0 0 1.969-1.894 3.443 3.443 0 0 0 .033-2.731l-4.17-10.33A3.556 3.556 0 0 0 22.96.242c-3.41 1.327-6.81 2.656-10.219 3.983-3.922 1.527-5.883 5.953-4.377 9.883z"/></symbol><symbol viewBox="0 0 64 64" id="vk" xmlns="http://www.w3.org/2000/svg"><path class="pst0" d="M53.2 31.6s8.4-11.9 9.3-15.8c.3-1.4-.3-2.2-1.8-2.2h-7.3c-1.7 0-2.3.7-2.8 1.8 0 0-4 8.4-8.8 13.7-1.5 1.7-2.3 2.2-3.2 2.2-.7 0-1-.6-1-2.1V15.7c0-1.9-.2-2.5-1.8-2.5H24.1c-.9 0-1.5.5-1.5 1.2 0 1.8 2.7 2.2 2.7 7v10c0 2-.1 2.8-1.1 2.8-2.5 0-8.5-8.7-11.8-18.5-.7-2-1.4-2.6-3.3-2.6H1.8c-1 .2-1.8.9-1.8 2 0 2 2.3 11 11.3 23.1 6 8.2 14 12.6 21.1 12.6 4.4 0 5.4-.7 5.4-2.6v-6.3c0-1.6.6-2.2 1.5-2.2 1 0 2.8.3 6.9 4.4 4.9 4.7 5.2 6.6 7.9 6.6h8.2c.8 0 1.6-.4 1.6-1.8 0-1.8-2.4-5.1-6.1-9-1.5-2-4-4.2-4.7-5.2-1.1-1.2-.7-1.8.1-3.1z"/></symbol></svg>